<svg width="147" height="11" viewBox="0 0 147 11" fill="none" xmlns="http://www.w3.org/2000/svg">
<path d="M5.95364 8.89322V9.95178H1.04515V8.89322H5.95364ZM1.30136 0.134795V9.95178H6.74613e-05V0.134795H1.30136ZM14.2328 8.89322V9.95178H9.03439V8.89322H14.2328ZM9.29735 0.134795V9.95178H7.99606V0.134795H9.29735ZM13.5451 4.35556V5.41412H9.03439V4.35556H13.5451ZM14.1654 0.134795V1.2001H9.03439V0.134795H14.1654ZM22.6333 8.89322V9.95178H17.4349V8.89322H22.6333ZM17.6979 0.134795V9.95178H16.3966V0.134795H17.6979ZM21.9456 4.35556V5.41412H17.4349V4.35556H21.9456ZM22.5659 0.134795V1.2001H17.4349V0.134795H22.5659ZM24.7971 0.134795H28.047C28.7842 0.134795 29.4067 0.247169 29.9146 0.471917C30.4271 0.696664 30.8159 1.02929 31.0811 1.4698C31.3508 1.90581 31.4856 2.44296 31.4856 3.08124C31.4856 3.53074 31.3935 3.94202 31.2092 4.31511C31.0294 4.68369 30.7687 4.99834 30.4271 5.25905C30.0899 5.51526 29.6854 5.70629 29.2134 5.83215L28.8493 5.97374H25.795L25.7815 4.91518H28.0874C28.5549 4.91518 28.9437 4.83427 29.2539 4.67245C29.564 4.50614 29.7978 4.28364 29.9551 4.00495C30.1124 3.72627 30.1911 3.41836 30.1911 3.08124C30.1911 2.70366 30.1169 2.37328 29.9686 2.0901C29.8202 1.80692 29.5865 1.58891 29.2674 1.43609C28.9527 1.27876 28.5459 1.2001 28.047 1.2001H26.0984V9.95178H24.7971V0.134795ZM30.5349 9.95178L28.1481 5.50177L29.5034 5.49503L31.9239 9.87087V9.95178H30.5349ZM39.812 8.89322V9.95178H34.9035V8.89322H39.812ZM35.1597 0.134795V9.95178H33.8584V0.134795H35.1597ZM43.2501 0.134795V9.95178H41.9488V0.134795H43.2501ZM53.7206 0.134795V9.95178H52.4125L47.4703 2.38003V9.95178H46.169V0.134795H47.4703L52.4328 7.72678V0.134795H53.7206ZM63.8337 5.06352V8.65723C63.7123 8.83703 63.519 9.03931 63.2538 9.26405C62.9886 9.48431 62.6223 9.67759 62.1548 9.8439C61.6918 10.0057 61.094 10.0866 60.3613 10.0866C59.7635 10.0866 59.2129 9.98325 58.7094 9.77648C58.2105 9.56522 57.7767 9.25956 57.4081 8.85951C57.044 8.45496 56.7609 7.96501 56.5586 7.38966C56.3608 6.80981 56.2619 6.15354 56.2619 5.42086V4.65897C56.2619 3.92629 56.3473 3.27228 56.5181 2.69692C56.6934 2.12157 56.9497 1.63386 57.2868 1.23381C57.6239 0.829266 58.0374 0.523609 58.5274 0.316841C59.0173 0.105578 59.5792 -5.39571e-05 60.213 -5.39571e-05C60.9636 -5.39571e-05 61.5907 0.1303 62.0941 0.391007C62.6021 0.64722 62.9976 1.00232 63.2808 1.45631C63.5685 1.9103 63.7528 2.42722 63.8337 3.00707H62.5324C62.474 2.65197 62.3571 2.32833 62.1818 2.03616C62.011 1.74399 61.766 1.51025 61.4469 1.33495C61.1277 1.15515 60.7164 1.06525 60.213 1.06525C59.759 1.06525 59.3657 1.14841 59.0331 1.31472C58.7004 1.48103 58.4262 1.71927 58.2105 2.02942C57.9947 2.33957 57.8329 2.7149 57.725 3.15541C57.6216 3.59591 57.57 4.0926 57.57 4.64548V5.42086C57.57 5.98723 57.6351 6.49291 57.7655 6.93791C57.9003 7.38291 58.0914 7.76274 58.3386 8.07738C58.5858 8.38754 58.8802 8.62352 59.2219 8.78534C59.568 8.94716 59.95 9.02807 60.3681 9.02807C60.831 9.02807 61.2064 8.98986 61.4941 8.91345C61.7817 8.83254 62.0065 8.73814 62.1683 8.63026C62.3301 8.51789 62.4537 8.41226 62.5391 8.31337V6.11534H60.2669V5.06352H63.8337ZM72.7804 8.89322V9.95178H67.5819V8.89322H72.7804ZM67.8449 0.134795V9.95178H66.5436V0.134795H67.8449ZM72.0926 4.35556V5.41412H67.5819V4.35556H72.0926ZM72.7129 0.134795V1.2001H67.5819V0.134795H72.7129ZM82.4957 0.134795V9.95178H81.1876L76.2454 2.38003V9.95178H74.9441V0.134795H76.2454L81.2079 7.72678V0.134795H82.4957ZM88.9746 6.10185H86.3518V5.04329H88.9746C89.4825 5.04329 89.8938 4.96238 90.2085 4.80056C90.5231 4.63874 90.7524 4.41399 90.8962 4.12632C91.0445 3.83864 91.1187 3.51051 91.1187 3.14192C91.1187 2.8048 91.0445 2.48791 90.8962 2.19124C90.7524 1.89457 90.5231 1.65634 90.2085 1.47654C89.8938 1.29225 89.4825 1.2001 88.9746 1.2001H86.6552V9.95178H85.3539V0.134795H88.9746C89.7163 0.134795 90.3433 0.262901 90.8557 0.519114C91.3682 0.775326 91.757 1.13043 92.0222 1.58442C92.2874 2.03391 92.42 2.54859 92.42 3.12844C92.42 3.75773 92.2874 4.29488 92.0222 4.73988C91.757 5.18488 91.3682 5.52425 90.8557 5.75799C90.3433 5.98723 89.7163 6.10185 88.9746 6.10185ZM102.176 4.73314V5.35344C102.176 6.09061 102.084 6.75137 101.899 7.33572C101.715 7.92006 101.45 8.41675 101.104 8.8258C100.758 9.23484 100.342 9.54724 99.8564 9.76299C99.3754 9.97875 98.836 10.0866 98.2382 10.0866C97.6583 10.0866 97.1257 9.97875 96.6402 9.76299C96.1593 9.54724 95.7412 9.23484 95.3861 8.8258C95.0355 8.41675 94.7636 7.92006 94.5703 7.33572C94.377 6.75137 94.2804 6.09061 94.2804 5.35344V4.73314C94.2804 3.99596 94.3748 3.33745 94.5635 2.7576C94.7568 2.17326 95.0288 1.67657 95.3794 1.26752C95.73 0.853988 96.1458 0.539341 96.6267 0.323583C97.1122 0.107825 97.6448 -5.39571e-05 98.2247 -5.39571e-05C98.8225 -5.39571e-05 99.3619 0.107825 99.8429 0.323583C100.328 0.539341 100.744 0.853988 101.09 1.26752C101.441 1.67657 101.708 2.17326 101.893 2.7576C102.081 3.33745 102.176 3.99596 102.176 4.73314ZM100.888 5.35344V4.71965C100.888 4.13531 100.827 3.61839 100.706 3.16889C100.589 2.7194 100.416 2.34182 100.187 2.03616C99.9575 1.7305 99.6766 1.49901 99.3439 1.34169C99.0158 1.18437 98.6427 1.10571 98.2247 1.10571C97.8201 1.10571 97.4538 1.18437 97.1257 1.34169C96.802 1.49901 96.5233 1.7305 96.2896 2.03616C96.0604 2.34182 95.8828 2.7194 95.757 3.16889C95.6311 3.61839 95.5682 4.13531 95.5682 4.71965V5.35344C95.5682 5.94228 95.6311 6.4637 95.757 6.91769C95.8828 7.36718 96.0626 7.74701 96.2964 8.05716C96.5346 8.36281 96.8155 8.59431 97.1392 8.75163C97.4673 8.90895 97.8336 8.98761 98.2382 8.98761C98.6607 8.98761 99.036 8.90895 99.3642 8.75163C99.6923 8.59431 99.9687 8.36281 100.193 8.05716C100.423 7.74701 100.596 7.36718 100.713 6.91769C100.83 6.4637 100.888 5.94228 100.888 5.35344ZM104.677 0.134795H107.927C108.664 0.134795 109.286 0.247169 109.794 0.471917C110.307 0.696664 110.695 1.02929 110.961 1.4698C111.23 1.90581 111.365 2.44296 111.365 3.08124C111.365 3.53074 111.273 3.94202 111.089 4.31511C110.909 4.68369 110.648 4.99834 110.307 5.25905C109.969 5.51526 109.565 5.70629 109.093 5.83215L108.729 5.97374H105.675L105.661 4.91518H107.967C108.434 4.91518 108.823 4.83427 109.133 4.67245C109.444 4.50614 109.677 4.28364 109.835 4.00495C109.992 3.72627 110.071 3.41836 110.071 3.08124C110.071 2.70366 109.996 2.37328 109.848 2.0901C109.7 1.80692 109.466 1.58891 109.147 1.43609C108.832 1.27876 108.425 1.2001 107.927 1.2001H105.978V9.95178H104.677V0.134795ZM110.414 9.95178L108.028 5.50177L109.383 5.49503L111.803 9.87087V9.95178H110.414ZM116.826 0.134795V9.95178H115.545V0.134795H116.826ZM119.981 0.134795V1.2001H112.396V0.134795H119.981ZM125.098 1.00457L121.849 9.95178H120.52L124.262 0.134795H125.119L125.098 1.00457ZM127.822 9.95178L124.566 1.00457L124.546 0.134795H125.402L129.157 9.95178H127.822ZM127.654 6.31761V7.38291H122.138V6.31761H127.654ZM134.659 1.00457L131.409 9.95178H130.081L133.823 0.134795H134.679L134.659 1.00457ZM137.383 9.95178L134.126 1.00457L134.106 0.134795H134.962L138.718 9.95178H137.383ZM137.214 6.31761V7.38291H131.699V6.31761H137.214ZM146.538 8.89322V9.95178H141.63V8.89322H146.538ZM141.886 0.134795V9.95178H140.585V0.134795H141.886Z" fill="#FCFAFA"/>
</svg>
